<svg width="148" height="118" viewBox="0 0 148 118" fill="none" xmlns="http://www.w3.org/2000/svg">
<path d="M63.1052 99.5H28.2421C20.1066 99.5 16.0388 99.5 12.9315 98.0285C10.1982 96.7345 7.97593 94.669 6.58329 92.129C5 89.2414 5 85.4607 5 77.9V26.6C5 19.0393 5 15.2589 6.58329 12.3711C7.97593 9.83091 10.1982 7.76568 12.9315 6.47143C16.0388 5 20.1066 5 28.2421 5H112.495C120.63 5 124.698 5 127.805 6.47143C130.539 7.76568 132.761 9.83091 134.153 12.3711C135.737 15.2589 135.737 19.0393 135.737 26.6V45.5M132.88 27.0205L96.1519 49.7761C86.8332 55.5494 82.1739 58.4364 77.1376 59.5582C72.6868 60.5491 68.0471 60.5491 63.597 59.5582C58.5607 58.4364 53.9013 55.5494 44.5824 49.7761L6.07102 25.9158M117.561 77.3053C112.479 72.0464 104.003 70.6316 97.635 75.4477C91.2674 80.2632 90.3704 88.3152 95.3718 94.0109C100.372 99.7066 117.561 113 117.561 113C117.561 113 134.75 99.7066 139.751 94.0109C144.753 88.3152 143.965 80.2125 137.488 75.4477C131.01 70.6822 122.644 72.0464 117.561 77.3053Z" stroke="white" stroke-width="10" stroke-linecap="round" stroke-linejoin="round"/>
</svg>
