<svg width="103" height="149" viewBox="0 0 103 149" fill="none" xmlns="http://www.w3.org/2000/svg">
<path d="M55.7172 45.08V0H35.2772C24.0206 0 14.8372 10.1269 14.8372 22.54C14.8372 34.9531 24.0206 45.08 35.2772 45.08H55.7172Z" fill="white"/>
<path d="M55.7172 51.52V78.4577V96.6H35.2772C24.0206 96.6 14.8372 86.4731 14.8372 74.06C14.8372 72.5962 14.9649 71.1642 15.2086 69.7769C17.0319 59.3993 25.348 51.52 35.2772 51.52H55.7172Z" fill="white"/>
<path d="M55.7172 125.58V103.04H35.2772C24.0206 103.04 14.8372 113.167 14.8372 125.58C14.8372 137.993 24.0206 148.12 35.2772 148.12C46.5338 148.12 55.7172 137.993 55.7172 125.58Z" fill="white"/>
<path d="M81.9972 45.08C93.2538 45.08 102.437 34.9531 102.437 22.54C102.437 10.1269 93.2538 0 81.9972 0H61.5572V45.08H81.9972Z" fill="white"/>
</svg>
