<svg width="136" height="131" viewBox="0 0 136 131" fill="none" xmlns="http://www.w3.org/2000/svg">
<g clip-path="url(#clip0_29_2)">
<path fill-rule="evenodd" clip-rule="evenodd" d="M68 0C105.556 0 136 30.064 136 67.1567C136 96.8216 116.538 121.987 89.5356 130.875C86.088 131.537 84.864 129.44 84.864 127.651C84.864 125.438 84.9456 118.207 84.9456 109.22C84.9456 102.958 82.7696 98.8713 80.3284 96.7884C95.472 95.1247 111.384 89.4453 111.384 63.6514C111.384 56.3154 108.746 50.329 104.38 45.6261C105.087 43.9297 107.42 37.0989 103.714 27.8503C103.714 27.8503 98.0152 26.0508 85.034 34.7361C79.6008 33.2493 73.78 32.5012 68 32.475C62.22 32.5012 56.406 33.2493 50.9796 34.7361C37.9848 26.0508 32.2728 27.8503 32.2728 27.8503C28.5804 37.0989 30.9128 43.9297 31.6132 45.6261C27.268 50.329 24.6092 56.3154 24.6092 63.6514C24.6092 89.3798 40.4872 95.1463 55.59 96.8428C53.6452 98.5196 51.884 101.478 51.272 105.82C47.396 107.536 37.5496 110.506 31.484 100.243C31.484 100.243 27.8868 93.7899 21.0596 93.3183C21.0596 93.3183 14.4296 93.2335 20.5972 97.3993C20.5972 97.3993 25.0512 99.4625 28.1452 107.224C28.1452 107.224 32.1368 119.211 51.0544 115.15C51.0884 120.763 51.1496 126.053 51.1496 127.651C51.1496 129.426 49.8984 131.504 46.5052 130.882C19.482 122.006 0 96.8282 0 67.1567C0 30.064 30.4504 0 68 0Z" fill="white"/>
</g>
<defs>
<clipPath id="clip0_29_2">
<rect width="136" height="131" fill="white"/>
</clipPath>
</defs>
</svg>
