<svg width="135" height="137" viewBox="0 0 135 137" fill="none" xmlns="http://www.w3.org/2000/svg">
<path d="M126.437 0H8.57562C3.84207 0 0 3.89899 0 8.70266V128.297C0 133.101 3.84207 137 8.57562 137H126.424C131.158 137 135 133.101 135 128.31V8.70266C135 3.89899 131.158 0 126.437 0ZM73.9286 104.98C73.9286 118.015 66.3951 123.952 55.3962 123.952C45.452 123.952 38.2827 117.186 35.3572 110.905L45.4646 104.7C47.4107 108.204 50.3739 110.905 54.6429 110.905C58.7235 110.905 61.0715 109.287 61.0715 102.992V61.9762H73.9286L73.9286 104.98ZM101.815 123.952C90.4269 123.952 83.9606 118.129 80.3571 110.905L90 104.381C92.6242 108.739 95.4869 112.905 101.539 112.905C106.624 112.905 109.286 110.331 109.286 106.764C109.286 102.508 106.523 100.992 100.936 98.507L97.8725 97.1691C89.0206 93.3465 83.132 88.5556 83.132 78.4131C83.132 69.0861 90.1507 61.9762 101.099 61.9762C108.896 61.9762 114.496 64.7284 118.539 71.9403L108.997 78.1711C106.888 74.3358 104.628 72.8322 101.099 72.8322C97.5083 72.8322 95.2357 75.1513 95.2357 78.1711C95.2357 81.9044 97.5083 83.4079 102.769 85.727L105.833 87.0649C116.267 91.5882 122.143 96.2135 122.143 106.611C122.143 117.811 113.467 123.952 101.815 123.952Z" fill="white"/>
</svg>
