<svg width="136" height="131" viewBox="0 0 136 131" fill="none" xmlns="http://www.w3.org/2000/svg">
<g clip-path="url(#clip0_3_72)">
<path d="M125.375 0H10.625C4.75469 0 0 4.57988 0 10.2344V120.766C0 126.42 4.75469 131 10.625 131H125.375C131.245 131 136 126.42 136 120.766V10.2344C136 4.57988 131.245 0 125.375 0ZM128.031 120.766C128.031 122.173 126.836 123.324 125.375 123.324H10.625C9.16406 123.324 7.96875 122.173 7.96875 120.766V10.2344C7.96875 8.82715 9.16406 7.67578 10.625 7.67578H125.375C126.836 7.67578 128.031 8.82715 128.031 10.2344V120.766Z" fill="white"/>
<path d="M48.9813 52.042H35.7266V92.9027H48.9813V52.042Z" fill="white"/>
<path d="M85.1859 51.6582C77.5891 51.6582 72.8344 55.6496 71.9578 58.4641V52.042H57.0562C57.2422 55.4449 57.0562 92.9027 57.0562 92.9027H71.9578V70.8221C71.9578 69.5684 71.9047 68.3402 72.2766 67.4703C73.2859 65.0141 75.4906 62.4555 79.4484 62.4555C84.6281 62.4555 86.9656 66.2422 86.9656 71.7688V92.9027H102V70.1824C102 57.543 94.6156 51.6582 85.1859 51.6582Z" fill="white"/>
<path d="M42.075 32.75C37.1875 32.75 33.9734 35.7947 33.9734 39.8373C33.9734 43.8031 37.0812 46.9246 41.8891 46.9246H41.9953C46.9891 46.9246 50.0969 43.7775 50.0703 39.8373C49.9641 35.7947 46.9625 32.75 42.075 32.75Z" fill="white"/>
</g>
<defs>
<clipPath id="clip0_3_72">
<rect width="136" height="131" fill="white"/>
</clipPath>
</defs>
</svg>
