<svg width="151" height="155" viewBox="0 0 151 155" fill="none" xmlns="http://www.w3.org/2000/svg">
<path d="M75.4631 0C73.1666 0 70.8707 0.533736 68.8888 1.60681L6.53742 35.7109C2.51075 37.9167 0 42.0931 0 46.5046V108.379C0 112.85 2.51075 116.967 6.53742 119.172L22.9056 128.115C30.8331 131.811 33.6599 131.806 37.2462 131.806C49.0116 131.806 55.7402 125.07 55.7402 113.386V49.5437C55.7402 48.5898 54.9282 47.8087 53.9215 47.8087H46.0569C44.9874 47.8087 44.226 48.5898 44.226 49.5437V113.327C44.226 118.574 38.5074 123.699 29.2587 119.347L12.141 109.986C11.5118 109.688 11.1333 109.035 11.1333 108.379V46.563C11.1333 45.8476 11.5118 45.244 12.141 44.8863L74.4924 10.7938C75.0586 10.4361 75.8171 10.4361 76.4462 10.7938L138.798 44.8863C139.427 45.244 139.805 45.8489 139.805 46.5047V108.379C139.805 109.035 139.425 109.688 138.859 109.986L76.4463 144.148C75.8801 144.446 75.0587 144.446 74.4924 144.148L58.4438 135.148C58.0034 134.849 57.385 134.793 56.9446 135.031C52.4775 137.416 51.6596 137.712 47.5071 139.083C46.5004 139.381 44.9265 139.976 48.0723 141.645L68.8889 153.335C70.9022 154.408 73.1736 155 75.4386 155C77.7665 155 80.0241 154.408 82.0375 153.335L144.463 119.173C148.489 116.967 151 112.85 151 108.379V46.563C151 42.0918 148.489 37.9751 144.463 35.7693L82.0375 1.60693C80.0556 0.533856 77.7596 0 75.4631 0ZM92.2368 47.7272C74.4314 47.7272 63.8014 54.8764 63.8014 66.7994C63.8014 79.736 74.3616 83.3073 91.475 84.9169C111.923 86.8246 113.496 89.6945 113.496 93.5099C113.496 100.068 107.906 102.871 94.7559 102.871C78.2089 102.871 74.5572 98.9311 73.3618 91.1812C73.236 90.3465 72.4854 89.749 71.6046 89.749H63.482C62.4753 89.749 61.7247 90.5315 61.7247 91.4257C61.7247 101.381 67.4501 113.234 94.7559 113.234C114.512 113.234 125.833 105.851 125.833 92.9743C125.833 80.2166 116.709 76.812 97.5823 74.3678C78.141 71.9832 76.1882 70.7308 76.1882 66.4385C76.1882 62.8615 77.8918 58.1599 92.2368 58.1599C105.009 58.1599 109.788 60.7745 111.739 68.9418C111.927 69.7168 112.615 70.3158 113.496 70.3158H121.618C122.122 70.3158 122.556 70.0797 122.933 69.722C123.248 69.4239 123.439 68.9428 123.376 68.4062C122.117 54.337 112.244 47.7272 92.2368 47.7272Z" fill="white"/>
</svg>
