<svg width="151" height="129" viewBox="0 0 151 129" fill="none" xmlns="http://www.w3.org/2000/svg">
<path d="M75.5 51.5721C68.0774 51.5721 62.0327 57.3761 62.0327 64.5032C62.0327 71.6303 68.0774 77.4343 75.5 77.4343C82.9226 77.4343 88.9673 71.6303 88.9673 64.5032C88.9673 57.3761 82.9226 51.5721 75.5 51.5721ZM37.7972 90.2025L34.8244 89.4955C12.7028 84.1129 0 75.0058 0 64.4806C0 53.9553 12.7076 44.8483 34.8244 39.4656L37.7972 38.7587L38.6324 41.5906C40.8691 48.9985 43.7428 56.2208 47.2111 63.2074L47.8482 64.4806L47.2111 65.7764C43.7475 72.7358 40.8691 79.9581 38.6324 87.3928L37.7972 90.2025ZM33.4513 46.0716C16.6383 50.6025 6.31841 57.5619 6.31841 64.4806C6.31841 71.3992 16.643 78.3315 33.4513 82.8896C35.518 76.5871 38.0001 70.4523 40.8974 64.4806C37.9953 58.5089 35.5133 52.3741 33.4513 46.0716ZM113.202 90.2025L112.367 87.3703C110.131 79.9626 107.258 72.7403 103.789 65.7764L103.152 64.4806L103.789 63.1847C107.253 56.2253 110.131 49.0031 112.367 41.5679L113.202 38.7587L116.176 39.4656C138.297 44.8483 151 53.9553 151 64.4806C151 75.0058 138.293 84.1129 116.176 89.4955L113.202 90.2025ZM110.102 64.4806C113.127 70.7559 115.633 76.9178 117.549 82.8896C134.385 78.336 144.681 71.3992 144.681 64.4806C144.681 57.5619 134.357 50.6296 117.549 46.0716C115.482 52.3469 113 58.5089 110.102 64.4806ZM33.3993 46.049L32.5641 43.2172C26.3447 22.1667 28.237 7.06528 37.75 1.8004C47.0884 -3.36933 62.0562 2.74282 77.7602 18.2249L79.8978 20.3271L77.7602 22.4295C72.1827 27.9979 67.0959 33.9923 62.5234 40.3627L61.6646 41.5181L60.1877 41.6359C52.1517 42.2475 44.1864 43.4754 36.3722 45.3195L33.3993 46.049ZM45.3425 6.00505C43.6484 6.00505 42.1479 6.33581 40.8927 7.04262C34.6497 10.5133 33.5456 22.5473 37.8444 38.7814C44.5544 37.3406 51.3352 36.3257 58.1963 35.7367C62.1271 30.354 66.4542 25.2115 71.0974 20.3725C61.2918 11.1929 52.0007 6.00505 45.3425 6.00505ZM105.681 128.996C105.657 128.996 105.657 128.996 105.681 128.996C96.7108 128.996 85.1828 122.53 73.2398 110.732L71.1021 108.629L73.2398 106.527C78.8172 100.959 83.9041 94.9642 88.4766 88.5939L89.3117 87.4387L90.7887 87.2977C98.8248 86.7093 106.79 85.4812 114.628 83.6145L117.601 82.9076L118.436 85.7394C124.655 106.79 122.763 121.869 113.25 127.129C110.937 128.402 108.333 129.046 105.681 128.996ZM79.8978 108.584C89.7034 117.764 98.9945 122.956 105.652 122.956H105.677C107.347 122.956 108.848 122.603 110.102 121.918C116.345 118.448 117.478 106.414 113.151 90.18C106.441 91.6207 99.632 92.6357 92.7989 93.2016C88.8682 98.6071 84.5411 103.723 79.8978 108.584ZM117.601 46.049L114.628 45.3195C106.79 43.4799 98.8248 42.252 90.7887 41.6359L89.3117 41.5181L88.4766 40.3627C83.9041 33.9923 78.8172 27.9979 73.2398 22.4295L71.1021 20.3271L73.2398 18.2249C88.9438 2.74282 103.911 -3.36933 113.25 1.8004C122.763 7.06075 124.655 22.1667 118.436 43.2172L117.601 46.049ZM92.8037 35.7367C99.9806 36.3755 106.814 37.3904 113.156 38.7814C117.483 22.5473 116.35 10.5087 110.107 7.04262C103.888 3.59916 92.1902 8.88212 79.9026 20.377C84.5458 25.2387 88.8493 30.3586 92.8037 35.7412V35.7367ZM45.3425 128.996C42.6858 129.041 40.0575 128.406 37.75 127.134C28.237 121.873 26.3447 106.79 32.5641 85.744L33.3993 82.9122L36.3722 83.619C43.6484 85.3906 51.6609 86.6141 60.1877 87.3028L61.6646 87.443L62.4998 88.5982C67.0723 94.9686 72.1592 100.963 77.7367 106.532L79.8742 108.634L77.7367 110.736C65.8172 122.534 54.2893 129 45.3425 129V128.996ZM37.8491 90.18C33.522 106.414 34.6545 118.452 40.8974 121.918C47.1168 125.316 58.7909 120.079 71.1021 108.584C66.4588 103.723 62.1317 98.6028 58.2011 93.1973C51.3448 92.6305 44.5592 91.6207 37.8491 90.18ZM75.5 93.9769C70.3141 93.9769 65.0055 93.7641 59.6733 93.3375L58.1963 93.2198L57.3375 92.0421C54.3412 87.8869 51.4862 83.619 48.8579 79.2285C46.2012 74.8382 43.7711 70.3571 41.5108 65.7764L40.8738 64.4806L41.5108 63.1847C43.7711 58.6086 46.206 54.1229 48.8579 49.7326C51.4627 45.4146 54.3128 41.0967 57.3375 36.9193L58.1963 35.7412L59.6733 35.6234C70.215 34.7716 80.8086 34.7716 91.3267 35.6234L92.8037 35.7412L93.6629 36.9193C99.6833 45.2244 104.993 54.0279 109.489 63.1847L110.127 64.4806L109.489 65.7764C104.993 74.9333 99.7075 83.7368 93.6629 92.0421L92.8037 93.2198L91.3267 93.3375C86.0181 93.7641 80.6859 93.9769 75.5 93.9769ZM61.6883 87.4162C70.9794 88.0998 80.0206 88.0998 89.3353 87.4162C94.5213 80.1257 99.1408 72.455 103.147 64.476C99.1641 56.5017 94.5446 48.8309 89.3117 41.5362C80.1197 40.8521 70.8803 40.8521 61.6883 41.5362C56.4551 48.8263 51.8307 56.4972 47.8528 64.476C51.8591 72.4504 56.4788 80.1212 61.6883 87.4162Z" fill="white"/>
</svg>
