<svg width="176" height="156" viewBox="0 0 176 156" fill="none" xmlns="http://www.w3.org/2000/svg">
<path d="M84.2778 0C58.043 0 36.6978 28.0281 36.6978 62.4838C36.6978 80.2835 42.4255 96.3119 51.5595 107.685C50.8626 111.141 51.8666 114.705 54.2992 117.409C56.7318 120.113 60.3408 121.679 64.1478 121.68C71.2226 121.68 76.9578 116.384 76.9578 109.85C76.9578 103.316 71.2226 98.02 64.1478 98.02C63.4505 98.0248 62.7548 98.0822 62.0676 98.1916C55.5233 89.1888 51.3378 76.4267 51.3378 62.4838C51.3378 35.9407 66.4244 13.52 84.2778 13.52C99.3534 13.52 112.42 29.5327 116.131 50.4887C121.336 51.8678 126.52 53.7334 131.601 55.9878C129.119 24.5741 108.844 0 84.2778 0ZM78.7878 50.7C71.7131 50.7 65.9778 55.9965 65.9778 62.53C65.9778 69.0635 71.7131 74.36 78.7878 74.36C83.6731 74.3576 88.1316 71.7893 90.2825 67.7386C102.177 67.0507 115.923 70.4396 128.612 77.4627C153.72 91.3647 167.374 115.674 158.421 130.546C155.479 135.433 150.178 138.948 143.088 140.699C132.88 143.221 120.363 141.939 108.032 137.359C104.12 140.718 99.8179 143.873 95.1221 146.773C107.303 152.454 120.184 155.467 132.087 155.467C137.247 155.467 142.229 154.906 146.877 153.757C157.882 151.036 166.302 145.281 171.217 137.115C184.335 115.317 168.926 84.021 136.14 65.8705C120.539 57.2298 103.257 53.2479 88.0666 54.3969C85.6529 52.0425 82.2986 50.706 78.7878 50.7ZM29.964 72.0759C4.04757 90.5678 -7.06826 117.622 4.6657 137.114C9.58108 145.281 18.0005 151.036 29.0061 153.757C33.658 154.906 38.6283 155.467 43.7963 155.467C57.7043 155.467 72.9686 151.389 86.8656 143.696C102.413 135.088 113.908 123.518 120.428 111.415C126.837 110.77 131.858 105.798 131.858 99.71C131.858 93.1866 126.112 87.88 119.048 87.88C111.984 87.88 106.238 93.1866 106.238 99.71C106.238 101.536 106.721 103.248 107.525 104.793C102.24 114.848 92.3791 124.875 79.3383 132.097C63.6149 140.804 46.2126 144.022 32.7877 140.699C25.7019 138.948 20.4041 135.433 17.4614 130.546C10.383 118.784 17.4693 101.141 33.1451 87.3915C31.6409 82.5243 30.5643 77.3994 29.964 72.0759Z" fill="white"/>
</svg>
