<svg width="103" height="146" viewBox="0 0 103 146" fill="none" xmlns="http://www.w3.org/2000/svg">
<path d="M58.6667 127.459C58.6667 128.424 58.2804 129.351 57.5927 130.034C56.9051 130.717 55.9725 131.1 55 131.1H47.6667C46.6942 131.1 45.7616 130.717 45.0739 130.034C44.3863 129.351 44 128.424 44 127.459C44 126.493 44.3863 125.566 45.0739 124.884C45.7616 124.201 46.6942 123.817 47.6667 123.817H55C55.9725 123.817 56.9051 124.201 57.5927 124.884C58.2804 125.566 58.6667 126.493 58.6667 127.459Z" fill="white"/>
<path d="M84.3333 0H18.3333C13.4726 0.0050129 8.81236 1.92499 5.37528 5.33863C1.93821 8.75227 0.00504731 13.3807 0 18.2083V127.458C0.0044659 132.286 1.93744 136.915 5.37464 140.329C8.81184 143.742 13.4724 145.662 18.3333 145.667H84.3333C89.1943 145.662 93.8548 143.742 97.292 140.329C100.729 136.915 102.662 132.286 102.667 127.458V18.2083C102.662 13.3807 100.728 8.75227 97.2914 5.33863C93.8543 1.92499 89.1941 0.0050129 84.3333 0ZM63.7369 7.28333L60.0703 14.5667H42.5964L38.9297 7.28333H63.7369ZM95.3333 127.458C95.33 130.355 94.17 133.132 92.1079 135.18C90.0457 137.228 87.2497 138.38 84.3333 138.383H18.3333C15.417 138.38 12.621 137.228 10.5588 135.18C8.49662 133.132 7.33663 130.355 7.33333 127.458V18.2083C7.33663 15.3118 8.49662 12.5349 10.5588 10.4868C12.621 8.43868 15.417 7.28661 18.3333 7.28333H30.7333L37.0531 19.8369C37.3577 20.4419 37.8259 20.9507 38.4053 21.3063C38.9846 21.6618 39.6523 21.8501 40.3333 21.85H62.3333C63.0144 21.8501 63.682 21.6618 64.2614 21.3063C64.8408 20.9507 65.309 20.4419 65.6135 19.8369L71.9334 7.28333H84.3333C87.2497 7.28661 90.0457 8.43868 92.1079 10.4868C94.17 12.5349 95.33 15.3118 95.3333 18.2083V127.458Z" fill="white"/>
</svg>
