<svg width="182" height="129" viewBox="0 0 182 129" fill="none" xmlns="http://www.w3.org/2000/svg">
<path d="M91 0C66.7333 0 51.5667 14.3323 45.5 42.997C54.6 28.6647 65.2167 23.2928 77.35 26.8726C84.2736 28.9156 89.2217 34.8519 94.7007 41.42C103.619 52.1143 113.943 64.4978 136.5 64.4978C160.767 64.4978 175.933 50.1654 182 21.4963C172.9 35.8286 162.283 41.2049 150.15 37.6252C143.23 35.5822 138.282 29.6459 132.803 23.0778C123.881 12.3789 113.553 0 91 0ZM45.5 64.4978C21.2333 64.4978 6.06667 78.8301 0 107.499C9.1 93.1669 19.7167 87.7906 31.85 91.3748C38.7698 93.4223 43.7179 99.3541 49.1969 105.918C58.1187 116.617 68.4472 129 91 129C115.267 129 130.433 114.668 136.5 85.9985C127.4 100.331 116.783 105.707 104.65 102.123C97.7264 100.08 92.7783 94.1436 87.2993 87.58C78.3813 76.8812 68.0566 64.4978 45.5 64.4978Z" fill="white"/>
</svg>
